<mxfile host="app.diagrams.net" modified="2021-08-14T04:31:31.308Z" agent="5.0 (Windows NT 10.0; Win64; x64) AppleWebKit/537.36 (KHTML, like Gecko) Chrome/92.0.4515.131 Safari/537.36" etag="X5iUhyPPADiR15wbGZeQ" version="14.9.6" type="github">
  <diagram id="C5RBs43oDa-KdzZeNtuy" name="Page-1">
    <mxGraphModel dx="1422" dy="794" grid="1" gridSize="10" guides="1" tooltips="1" connect="1" arrows="1" fold="1" page="1" pageScale="1" pageWidth="827" pageHeight="1169" math="0" shadow="0">
      <root>
        <mxCell id="WIyWlLk6GJQsqaUBKTNV-0" />
        <mxCell id="WIyWlLk6GJQsqaUBKTNV-1" parent="WIyWlLk6GJQsqaUBKTNV-0" />
        <mxCell id="VZdfGjh3_EOJoof761YB-5" value="Ability Base&#xa;&#xa;" style="swimlane;fontStyle=2;align=center;verticalAlign=top;childLayout=stackLayout;horizontal=1;startSize=26;horizontalStack=0;resizeParent=1;resizeLast=0;collapsible=1;marginBottom=0;rounded=0;shadow=0;strokeWidth=1;" vertex="1" parent="WIyWlLk6GJQsqaUBKTNV-1">
          <mxGeometry x="320" y="90" width="160" height="138" as="geometry">
            <mxRectangle x="230" y="140" width="160" height="26" as="alternateBounds" />
          </mxGeometry>
        </mxCell>
        <mxCell id="VZdfGjh3_EOJoof761YB-9" value="" style="line;html=1;strokeWidth=1;align=left;verticalAlign=middle;spacingTop=-1;spacingLeft=3;spacingRight=3;rotatable=0;labelPosition=right;points=[];portConstraint=eastwest;" vertex="1" parent="VZdfGjh3_EOJoof761YB-5">
          <mxGeometry y="26" width="160" height="8" as="geometry" />
        </mxCell>
        <mxCell id="VZdfGjh3_EOJoof761YB-16" style="edgeStyle=orthogonalEdgeStyle;rounded=0;orthogonalLoop=1;jettySize=auto;html=1;entryX=0.5;entryY=1;entryDx=0;entryDy=0;" edge="1" parent="WIyWlLk6GJQsqaUBKTNV-1" source="VZdfGjh3_EOJoof761YB-12" target="VZdfGjh3_EOJoof761YB-5">
          <mxGeometry relative="1" as="geometry" />
        </mxCell>
        <mxCell id="VZdfGjh3_EOJoof761YB-12" value="Skill Base" style="whiteSpace=wrap;html=1;rounded=0;shadow=0;fontStyle=2;verticalAlign=top;strokeWidth=1;startSize=26;" vertex="1" parent="WIyWlLk6GJQsqaUBKTNV-1">
          <mxGeometry x="200" y="300" width="120" height="60" as="geometry" />
        </mxCell>
        <mxCell id="VZdfGjh3_EOJoof761YB-23" style="edgeStyle=orthogonalEdgeStyle;rounded=0;orthogonalLoop=1;jettySize=auto;html=1;exitX=0.5;exitY=0;exitDx=0;exitDy=0;entryX=0.5;entryY=1;entryDx=0;entryDy=0;" edge="1" parent="WIyWlLk6GJQsqaUBKTNV-1" source="VZdfGjh3_EOJoof761YB-21" target="VZdfGjh3_EOJoof761YB-12">
          <mxGeometry relative="1" as="geometry" />
        </mxCell>
        <mxCell id="VZdfGjh3_EOJoof761YB-21" value="Skill &lt;br&gt;Type of Instants&amp;nbsp;" style="whiteSpace=wrap;html=1;rounded=0;shadow=0;fontStyle=2;verticalAlign=top;strokeWidth=1;startSize=26;" vertex="1" parent="WIyWlLk6GJQsqaUBKTNV-1">
          <mxGeometry x="110" y="430" width="120" height="60" as="geometry" />
        </mxCell>
        <mxCell id="VZdfGjh3_EOJoof761YB-24" style="edgeStyle=orthogonalEdgeStyle;rounded=0;orthogonalLoop=1;jettySize=auto;html=1;exitX=0.5;exitY=0;exitDx=0;exitDy=0;entryX=0.5;entryY=1;entryDx=0;entryDy=0;" edge="1" parent="WIyWlLk6GJQsqaUBKTNV-1" source="VZdfGjh3_EOJoof761YB-22" target="VZdfGjh3_EOJoof761YB-12">
          <mxGeometry relative="1" as="geometry">
            <mxPoint x="260" y="380" as="targetPoint" />
          </mxGeometry>
        </mxCell>
        <mxCell id="VZdfGjh3_EOJoof761YB-22" value="Skill &lt;br&gt;Type of AoE" style="whiteSpace=wrap;html=1;rounded=0;shadow=0;fontStyle=2;verticalAlign=top;strokeWidth=1;startSize=26;" vertex="1" parent="WIyWlLk6GJQsqaUBKTNV-1">
          <mxGeometry x="260" y="430" width="120" height="60" as="geometry" />
        </mxCell>
        <mxCell id="VZdfGjh3_EOJoof761YB-26" style="edgeStyle=orthogonalEdgeStyle;rounded=0;orthogonalLoop=1;jettySize=auto;html=1;entryX=0.5;entryY=1;entryDx=0;entryDy=0;" edge="1" parent="WIyWlLk6GJQsqaUBKTNV-1" source="VZdfGjh3_EOJoof761YB-25" target="VZdfGjh3_EOJoof761YB-5">
          <mxGeometry relative="1" as="geometry" />
        </mxCell>
        <mxCell id="VZdfGjh3_EOJoof761YB-25" value="Item Base" style="whiteSpace=wrap;html=1;rounded=0;shadow=0;fontStyle=2;verticalAlign=top;strokeWidth=1;startSize=26;" vertex="1" parent="WIyWlLk6GJQsqaUBKTNV-1">
          <mxGeometry x="450" y="300" width="120" height="60" as="geometry" />
        </mxCell>
        <mxCell id="VZdfGjh3_EOJoof761YB-30" style="edgeStyle=orthogonalEdgeStyle;rounded=0;orthogonalLoop=1;jettySize=auto;html=1;exitX=0.5;exitY=0;exitDx=0;exitDy=0;entryX=0.5;entryY=1;entryDx=0;entryDy=0;" edge="1" parent="WIyWlLk6GJQsqaUBKTNV-1" source="VZdfGjh3_EOJoof761YB-27" target="VZdfGjh3_EOJoof761YB-25">
          <mxGeometry relative="1" as="geometry" />
        </mxCell>
        <mxCell id="VZdfGjh3_EOJoof761YB-27" value="Item &lt;br&gt;Type of Potsion&amp;nbsp;" style="whiteSpace=wrap;html=1;rounded=0;shadow=0;fontStyle=2;verticalAlign=top;strokeWidth=1;startSize=26;" vertex="1" parent="WIyWlLk6GJQsqaUBKTNV-1">
          <mxGeometry x="404" y="430" width="120" height="60" as="geometry" />
        </mxCell>
        <mxCell id="VZdfGjh3_EOJoof761YB-31" style="edgeStyle=orthogonalEdgeStyle;rounded=0;orthogonalLoop=1;jettySize=auto;html=1;exitX=0.5;exitY=0;exitDx=0;exitDy=0;entryX=0.5;entryY=1;entryDx=0;entryDy=0;" edge="1" parent="WIyWlLk6GJQsqaUBKTNV-1" source="VZdfGjh3_EOJoof761YB-28" target="VZdfGjh3_EOJoof761YB-25">
          <mxGeometry relative="1" as="geometry">
            <mxPoint x="490" y="380" as="targetPoint" />
          </mxGeometry>
        </mxCell>
        <mxCell id="VZdfGjh3_EOJoof761YB-28" value="Item &lt;br&gt;Type of Equip" style="whiteSpace=wrap;html=1;rounded=0;shadow=0;fontStyle=2;verticalAlign=top;strokeWidth=1;startSize=26;" vertex="1" parent="WIyWlLk6GJQsqaUBKTNV-1">
          <mxGeometry x="538" y="430" width="120" height="60" as="geometry" />
        </mxCell>
        <mxCell id="VZdfGjh3_EOJoof761YB-32" style="edgeStyle=orthogonalEdgeStyle;rounded=0;orthogonalLoop=1;jettySize=auto;html=1;exitX=0.5;exitY=0;exitDx=0;exitDy=0;entryX=0.5;entryY=1;entryDx=0;entryDy=0;" edge="1" parent="WIyWlLk6GJQsqaUBKTNV-1" source="VZdfGjh3_EOJoof761YB-29" target="VZdfGjh3_EOJoof761YB-25">
          <mxGeometry relative="1" as="geometry">
            <mxPoint x="490" y="380" as="targetPoint" />
          </mxGeometry>
        </mxCell>
        <mxCell id="VZdfGjh3_EOJoof761YB-29" value="Item &lt;br&gt;Type of Misc" style="whiteSpace=wrap;html=1;rounded=0;shadow=0;fontStyle=2;verticalAlign=top;strokeWidth=1;startSize=26;" vertex="1" parent="WIyWlLk6GJQsqaUBKTNV-1">
          <mxGeometry x="670" y="430" width="120" height="60" as="geometry" />
        </mxCell>
      </root>
    </mxGraphModel>
  </diagram>
</mxfile>
